<svg width="149" height="22" viewBox="0 0 149 22" fill="none" xmlns="http://www.w3.org/2000/svg">
<path d="M24.1172 10.2979C24.1172 11.8386 23.8507 13.3209 23.3175 14.7447C22.7843 16.1489 21.9947 17.3971 20.9488 18.4894C19.9234 19.562 18.6621 20.4201 17.1651 21.0638C15.668 21.6879 13.9658 22 12.0587 22C10.3975 22 8.82863 21.7171 7.35208 21.1515C5.89601 20.5665 4.6143 19.7765 3.50686 18.7818C2.4199 17.7872 1.55854 16.6267 0.922878 15.3005C0.307591 13.9548 0 12.5212 0 11C0 9.47877 0.307591 8.05497 0.922878 6.7287C1.55854 5.38298 2.4199 4.21277 3.50686 3.21816C4.6143 2.22345 5.89601 1.44325 7.35208 0.877731C8.82863 0.292577 10.3975 0 12.0587 0C13.2686 0 14.4478 0.156059 15.5963 0.468084C16.7447 0.780205 17.8111 1.21902 18.7955 1.78463C19.7799 2.3307 20.6514 3.00356 21.4102 3.80321C22.1896 4.58332 22.8252 5.44151 23.3175 6.37768H17.5957C16.9395 5.71455 16.1089 5.18793 15.104 4.79792C14.1196 4.40782 13.1045 4.21277 12.0587 4.21277C11.0743 4.21277 10.1514 4.38827 9.29002 4.73938C8.42876 5.0904 7.66996 5.57803 7.01363 6.20217C6.37797 6.80678 5.86525 7.52835 5.47556 8.367C5.10645 9.18619 4.9219 10.0638 4.9219 11C4.9219 11.9362 5.10645 12.8138 5.47556 13.633C5.86525 14.4521 6.37797 15.1738 7.01363 15.7978C7.66996 16.4024 8.42876 16.8901 9.29002 17.2606C10.1514 17.6117 11.0743 17.7872 12.0587 17.7872C12.8994 17.7872 13.6993 17.6604 14.4581 17.4069C15.2169 17.1338 15.9039 16.7633 16.5191 16.2952C17.1343 15.8271 17.6573 15.281 18.0879 14.6569C18.5186 14.0133 18.8262 13.3209 19.0108 12.5798H11.4126V9.18619H24.1172V10.2979Z" fill="black"/>
<path d="M26.1235 13.633C26.1235 12.4822 26.3287 11.3998 26.7388 10.3857C27.1695 9.37141 27.7642 8.48405 28.5225 7.72339C29.2821 6.96273 30.1841 6.36794 31.2305 5.93885C32.2967 5.49021 33.4657 5.26599 34.7367 5.26599H35.3518V9.24471C34.7159 9.24471 34.1116 9.36169 33.5369 9.59573C32.9831 9.82977 32.5014 10.1418 32.091 10.5319C31.6815 10.922 31.3531 11.3901 31.1069 11.9362C30.8606 12.4628 30.7379 13.0284 30.7379 13.633V21.5319H26.1235V13.633Z" fill="black"/>
<path d="M54.7734 13.633C54.7734 14.7837 54.5271 15.8661 54.0346 16.8803C53.5638 17.8945 52.9071 18.7818 52.0664 19.5425C51.2455 20.3032 50.2822 20.9078 49.1744 21.3563C48.0677 21.7854 46.8779 22 45.6059 22C44.335 22 43.1452 21.7854 42.0375 21.3563C40.9307 20.9078 39.9565 20.3032 39.1158 19.5425C38.2949 18.7818 37.6392 17.8945 37.1466 16.8803C36.6748 15.8661 36.4395 14.7837 36.4395 13.633C36.4395 12.4822 36.6748 11.3998 37.1466 10.3857C37.6392 9.37141 38.2949 8.48405 39.1158 7.72339C39.9565 6.96273 40.9307 6.36794 42.0375 5.93885C43.1452 5.49021 44.335 5.26599 45.6059 5.26599C46.8779 5.26599 48.0677 5.49021 49.1744 5.93885C50.2822 6.36794 51.2455 6.96273 52.0664 7.72339C52.9071 8.48405 53.5638 9.37141 54.0346 10.3857C54.5271 11.3998 54.7734 12.4822 54.7734 13.633ZM50.1585 13.633C50.1585 13.0284 50.0359 12.4628 49.7896 11.9362C49.5641 11.3901 49.2466 10.922 48.8362 10.5319C48.4257 10.1418 47.944 9.82977 47.3902 9.59573C46.8363 9.36169 46.2419 9.24471 45.6059 9.24471C44.971 9.24471 44.3756 9.36169 43.8217 9.59573C43.2688 9.82977 42.7862 10.1418 42.3767 10.5319C41.9662 10.922 41.6379 11.3901 41.3916 11.9362C41.1661 12.4628 41.0534 13.0284 41.0534 13.633C41.0534 14.2376 41.1661 14.8129 41.3916 15.359C41.6379 15.8856 41.9662 16.344 42.3767 16.734C42.7862 17.1241 43.2688 17.4361 43.8217 17.6702C44.3756 17.9042 44.971 18.0213 45.6059 18.0213C46.2419 18.0213 46.8363 17.9042 47.3902 17.6702C47.944 17.4361 48.4257 17.1241 48.8362 16.734C49.2466 16.344 49.5641 15.8856 49.7896 15.359C50.0359 14.8129 50.1585 14.2376 50.1585 13.633Z" fill="black"/>
<path d="M64.8548 12.2287C65.471 12.2872 66.0654 12.4238 66.6391 12.6383C67.2345 12.8528 67.7567 13.1454 68.2087 13.5159C68.6804 13.8865 69.0593 14.3351 69.3461 14.8616C69.6339 15.3688 69.7773 15.9539 69.7773 16.617C69.7773 17.4556 69.5923 18.2163 69.2234 18.8989C68.8545 19.562 68.3521 20.1276 67.7161 20.5957C67.1009 21.0443 66.3829 21.3856 65.563 21.6196C64.7628 21.8732 63.9123 22 63.0093 22C62.128 22 61.2764 21.8732 60.4565 21.6196C59.6356 21.3856 58.9077 21.0443 58.2727 20.5957C57.6565 20.1276 57.165 19.562 56.7961 18.8989C56.4261 18.2163 56.2422 17.4556 56.2422 16.617H60.8561C60.8561 17.2801 61.0816 17.7287 61.5326 17.9627C62.0044 18.1968 62.4969 18.3138 63.0093 18.3138C63.5226 18.3138 64.0042 18.187 64.4552 17.9335C64.927 17.68 65.1634 17.2996 65.1634 16.7925C65.1634 16.422 64.9369 16.0904 64.4859 15.7978C64.0349 15.5053 63.4613 15.3103 62.764 15.2128C61.9638 15.1152 61.1746 14.9299 60.3952 14.6569C59.6356 14.3838 58.9591 14.0425 58.3647 13.633C57.79 13.2233 57.3183 12.7553 56.9494 12.2287C56.6012 11.6826 56.4262 11.0975 56.4262 10.4734C56.4262 9.67371 56.6012 8.95214 56.9494 8.30854C57.2985 7.66486 57.7703 7.11879 58.3647 6.67025C58.9799 6.22161 59.687 5.88032 60.4872 5.64627C61.2873 5.39269 62.128 5.26599 63.0093 5.26599C63.9123 5.26599 64.7529 5.39269 65.5323 5.64627C66.3315 5.88032 67.0287 6.23143 67.6242 6.69951C68.2393 7.14806 68.721 7.70394 69.0701 8.36698C69.4183 9.03012 69.5923 9.79078 69.5923 10.649H64.9784C64.9784 10.3174 64.9171 10.0443 64.7935 9.82977C64.6916 9.59573 64.5472 9.42022 64.3633 9.30315C64.1783 9.16664 63.9637 9.07893 63.7174 9.03984C63.4919 8.9814 63.2555 8.95214 63.0093 8.95214C62.4969 8.95214 62.035 9.05939 61.6256 9.27389C61.2359 9.46894 61.041 9.82977 61.041 10.3564C61.041 10.5904 61.1538 10.8147 61.3793 11.0293C61.6048 11.2243 61.9025 11.4095 62.2714 11.585C62.6403 11.7411 63.0508 11.8776 63.5018 11.9947C63.9528 12.0922 64.4038 12.1702 64.8548 12.2287Z" fill="black"/>
<path d="M76.5477 19.4255C76.5477 19.7765 76.4765 20.1081 76.3331 20.4201C76.1887 20.7127 75.9949 20.976 75.7486 21.21C75.5231 21.4441 75.2462 21.6196 74.9178 21.7366C74.6102 21.8732 74.2719 21.9414 73.903 21.9414C73.1642 21.9414 72.5391 21.6976 72.0258 21.21C71.5135 20.7224 71.2573 20.1276 71.2573 19.4255C71.2573 19.0744 71.3186 18.7526 71.4413 18.46C71.5847 18.148 71.7795 17.8847 72.0258 17.6701C72.2721 17.4361 72.549 17.2508 72.8566 17.1143C73.185 16.9778 73.5331 16.9095 73.903 16.9095C74.2719 16.9095 74.6102 16.9778 74.9178 17.1143C75.2462 17.2508 75.5231 17.4361 75.7486 17.6701C75.9949 17.8847 76.1887 18.148 76.3331 18.46C76.4765 18.7526 76.5477 19.0744 76.5477 19.4255Z" fill="black"/>
<path d="M77.6909 9.47877V5.73409H79.5671C79.5671 4.93444 79.7214 4.19332 80.029 3.51064C80.3564 2.80851 80.7876 2.20391 81.3207 1.69683C81.8746 1.17021 82.5204 0.760661 83.2583 0.468084C83.9971 0.156059 84.7764 0 85.5964 0H87.3193V3.51064H87.258C86.9296 3.51064 86.5805 3.55945 86.2116 3.65697C85.8634 3.7545 85.535 3.90074 85.2275 4.09579C84.9199 4.2713 84.6637 4.50534 84.458 4.79792C84.274 5.07095 84.181 5.38298 84.181 5.73409H87.3193V9.47877H84.181V21.5319H79.5671V9.47877H77.6909Z" fill="black"/>
<path d="M97.6964 5.26599C98.9683 5.26599 100.158 5.49021 101.265 5.93885C102.373 6.36794 103.336 6.96273 104.157 7.72339C104.977 8.48405 105.623 9.37141 106.094 10.3857C106.587 11.3998 106.833 12.4822 106.833 13.633V21.5319H102.526V19.5718C101.993 20.3129 101.306 20.9078 100.466 21.3563C99.624 21.7854 98.7012 22 97.6964 22C96.4452 22 95.2564 21.7854 94.1279 21.3563C93.0211 20.9078 92.0568 20.3032 91.2369 19.5425C90.416 18.7818 89.7603 17.8945 89.2677 16.8803C88.7959 15.8661 88.5605 14.7837 88.5605 13.633C88.5605 12.4822 88.7959 11.3998 89.2677 10.3857C89.7603 9.37141 90.416 8.48405 91.2369 7.72339C92.0568 6.96273 93.0211 6.36794 94.1279 5.93885C95.2564 5.49021 96.4452 5.26599 97.6964 5.26599ZM97.7893 18.0213C98.4243 18.0213 99.0197 17.9042 99.5736 17.6702C100.147 17.4361 100.64 17.1241 101.05 16.734C101.46 16.344 101.788 15.8856 102.034 15.359C102.281 14.8129 102.403 14.2376 102.403 13.633C102.403 13.0284 102.281 12.4628 102.034 11.9362C101.788 11.3901 101.46 10.922 101.05 10.5319C100.64 10.1418 100.147 9.82977 99.5736 9.59573C99.0197 9.36169 98.4243 9.24471 97.7893 9.24471C97.1534 9.24471 96.5481 9.36169 95.9744 9.59573C95.4206 9.82977 94.9379 10.1418 94.5285 10.5319C94.118 10.922 93.7896 11.3901 93.5434 11.9362C93.2981 12.4628 93.1744 13.0284 93.1744 13.633C93.1744 14.2376 93.2981 14.8129 93.5434 15.359C93.7896 15.8856 94.118 16.344 94.5285 16.734C94.9379 17.1241 95.4206 17.4361 95.9744 17.6702C96.5481 17.9042 97.1534 18.0213 97.7893 18.0213Z" fill="black"/>
<path d="M109.607 13.633C109.607 12.4822 109.812 11.3998 110.223 10.3857C110.653 9.37141 111.247 8.48405 112.007 7.72339C112.765 6.96273 113.667 6.36794 114.714 5.93885C115.78 5.49021 116.949 5.26599 118.22 5.26599H118.835V9.24471C118.2 9.24471 117.595 9.36169 117.02 9.59573C116.466 9.82977 115.985 10.1418 115.574 10.5319C115.165 10.922 114.837 11.3901 114.59 11.9362C114.344 12.4628 114.221 13.0284 114.221 13.633V21.5319H109.607V13.633Z" fill="black"/>
<path d="M120.392 13.633C120.392 12.4822 120.586 11.3998 120.976 10.3857C121.366 9.37141 121.919 8.48405 122.637 7.72339C123.355 6.96273 124.226 6.36794 125.252 5.93885C126.277 5.49021 127.426 5.26599 128.697 5.26599C129.907 5.26599 131.025 5.50976 132.05 5.99739C133.096 6.46547 133.978 7.10906 134.695 7.92816C135.413 7.10906 136.285 6.46547 137.31 5.99739C138.357 5.50976 139.484 5.26599 140.694 5.26599C141.966 5.26599 143.114 5.49021 144.14 5.93885C145.165 6.36794 146.037 6.96273 146.755 7.72339C147.472 8.48405 148.026 9.37141 148.415 10.3857C148.805 11.3998 149 12.4822 149 13.633V21.5319H144.386V13.633C144.386 13.0284 144.314 12.4628 144.17 11.9362C144.027 11.3901 143.801 10.922 143.494 10.5319C143.186 10.1418 142.796 9.82977 142.325 9.59573C141.874 9.36169 141.33 9.24471 140.694 9.24471C140.059 9.24471 139.505 9.36169 139.033 9.59573C138.582 9.82977 138.202 10.1418 137.895 10.5319C137.587 10.922 137.362 11.3901 137.218 11.9362C137.075 12.4628 137.003 13.0284 137.003 13.633V21.5319H132.389V13.633C132.389 13.0284 132.317 12.4628 132.173 11.9362C132.03 11.3901 131.804 10.922 131.497 10.5319C131.189 10.1418 130.799 9.82977 130.328 9.59573C129.877 9.36169 129.333 9.24471 128.697 9.24471C128.062 9.24471 127.508 9.36169 127.036 9.59573C126.585 9.82977 126.205 10.1418 125.898 10.5319C125.59 10.922 125.365 11.3901 125.221 11.9362C125.078 12.4628 125.006 13.0284 125.006 13.633V21.5319H120.392V13.633Z" fill="black"/>
</svg>
