<svg width="18" height="18" viewBox="0 0 18 18" fill="none" xmlns="http://www.w3.org/2000/svg">
<path d="M12.5 3.55556V2M5.5 3.55556V2M2.19444 5.88889H15.8056" stroke="black" stroke-linecap="round" stroke-linejoin="round"/>
<path d="M2 7.47867C2 5.83367 2 5.01078 2.33911 4.38233C2.64575 3.82179 3.12155 3.37239 3.69867 3.09822C4.36444 2.77778 5.23556 2.77778 6.97778 2.77778H11.0222C12.7644 2.77778 13.6356 2.77778 14.3013 3.09822C14.887 3.37978 15.3622 3.82933 15.6609 4.38156C16 5.01156 16 5.83445 16 7.47945V11.2999C16 12.9449 16 13.7678 15.6609 14.3962C15.3543 14.9568 14.8784 15.4062 14.3013 15.6803C13.6356 16 12.7644 16 11.0222 16H6.97778C5.23556 16 4.36444 16 3.69867 15.6796C3.12167 15.4056 2.64588 14.9565 2.33911 14.3962C2 13.7662 2 12.9433 2 11.2983V7.47867Z" stroke="black" stroke-linecap="round" stroke-linejoin="round"/>
<path d="M12.8889 12.2407C12.8889 12.4126 12.8206 12.5775 12.6991 12.6991C12.5775 12.8206 12.4126 12.8889 12.2407 12.8889C12.0688 12.8889 11.904 12.8206 11.7824 12.6991C11.6609 12.5775 11.5926 12.4126 11.5926 12.2407C11.5926 12.0688 11.6609 11.904 11.7824 11.7824C11.904 11.6609 12.0688 11.5926 12.2407 11.5926C12.4126 11.5926 12.5775 11.6609 12.6991 11.7824C12.8206 11.904 12.8889 12.0688 12.8889 12.2407ZM12.8889 9.64815C12.8889 9.82005 12.8206 9.98491 12.6991 10.1065C12.5775 10.228 12.4126 10.2963 12.2407 10.2963C12.0688 10.2963 11.904 10.228 11.7824 10.1065C11.6609 9.98491 11.5926 9.82005 11.5926 9.64815C11.5926 9.47625 11.6609 9.31139 11.7824 9.18984C11.904 9.06829 12.0688 9 12.2407 9C12.4126 9 12.5775 9.06829 12.6991 9.18984C12.8206 9.31139 12.8889 9.47625 12.8889 9.64815ZM9.64815 12.2407C9.64815 12.4126 9.57986 12.5775 9.45831 12.6991C9.33676 12.8206 9.1719 12.8889 9 12.8889C8.8281 12.8889 8.66324 12.8206 8.54169 12.6991C8.42014 12.5775 8.35186 12.4126 8.35186 12.2407C8.35186 12.0688 8.42014 11.904 8.54169 11.7824C8.66324 11.6609 8.8281 11.5926 9 11.5926C9.1719 11.5926 9.33676 11.6609 9.45831 11.7824C9.57986 11.904 9.64815 12.0688 9.64815 12.2407ZM9.64815 9.64815C9.64815 9.82005 9.57986 9.98491 9.45831 10.1065C9.33676 10.228 9.1719 10.2963 9 10.2963C8.8281 10.2963 8.66324 10.228 8.54169 10.1065C8.42014 9.98491 8.35186 9.82005 8.35186 9.64815C8.35186 9.47625 8.42014 9.31139 8.54169 9.18984C8.66324 9.06829 8.8281 9 9 9C9.1719 9 9.33676 9.06829 9.45831 9.18984C9.57986 9.31139 9.64815 9.47625 9.64815 9.64815ZM6.40741 12.2407C6.40741 12.4126 6.33912 12.5775 6.21757 12.6991C6.09602 12.8206 5.93116 12.8889 5.75926 12.8889C5.58736 12.8889 5.4225 12.8206 5.30095 12.6991C5.1794 12.5775 5.11111 12.4126 5.11111 12.2407C5.11111 12.0688 5.1794 11.904 5.30095 11.7824C5.4225 11.6609 5.58736 11.5926 5.75926 11.5926C5.93116 11.5926 6.09602 11.6609 6.21757 11.7824C6.33912 11.904 6.40741 12.0688 6.40741 12.2407ZM6.40741 9.64815C6.40741 9.82005 6.33912 9.98491 6.21757 10.1065C6.09602 10.228 5.93116 10.2963 5.75926 10.2963C5.58736 10.2963 5.4225 10.228 5.30095 10.1065C5.1794 9.98491 5.11111 9.82005 5.11111 9.64815C5.11111 9.47625 5.1794 9.31139 5.30095 9.18984C5.4225 9.06829 5.58736 9 5.75926 9C5.93116 9 6.09602 9.06829 6.21757 9.18984C6.33912 9.31139 6.40741 9.47625 6.40741 9.64815Z" fill="black"/>
</svg>
