<svg width="18" height="18" viewBox="0 0 18 18" fill="none" xmlns="http://www.w3.org/2000/svg">
<path d="M6.97778 16C5.23556 16 4.36444 16 3.69867 15.6609C3.1133 15.3626 2.63738 14.8867 2.33911 14.3013C2 13.6356 2 12.7644 2 11.0222M16 11.0222C16 12.7644 16 13.6356 15.6609 14.3013C15.3626 14.8867 14.8867 15.3626 14.3013 15.6609C13.6356 16 12.7644 16 11.0222 16M11.0222 2C12.7644 2 13.6356 2 14.3013 2.33911C14.8867 2.63738 15.3626 3.1133 15.6609 3.69867C16 4.36444 16 5.23556 16 6.97778M6.97778 2C5.23556 2 4.36444 2 3.69867 2.33911C3.1133 2.63738 2.63738 3.1133 2.33911 3.69867C2 4.36444 2 5.23556 2 6.97778M11.3333 9C11.3333 8.38116 11.0875 7.78767 10.6499 7.35008C10.2123 6.9125 9.61884 6.66667 9 6.66667C8.38116 6.66667 7.78767 6.9125 7.35008 7.35008C6.9125 7.78767 6.66667 8.38116 6.66667 9C6.66667 9.61884 6.9125 10.2123 7.35008 10.6499C7.78767 11.0875 8.38116 11.3333 9 11.3333C9.61884 11.3333 10.2123 11.0875 10.6499 10.6499C11.0875 10.2123 11.3333 9.61884 11.3333 9Z" stroke="black" stroke-linecap="round" stroke-linejoin="round"/>
</svg>
