<svg width="18" height="18" viewBox="0 0 18 18" fill="none" xmlns="http://www.w3.org/2000/svg">
<path d="M7.33076 8.58852C7.19924 8.72006 7.09493 8.87623 7.02381 9.04811C6.95268 9.22 6.91613 9.40421 6.91624 9.59023V11.5828H8.92117C9.29681 11.5828 9.65766 11.4334 9.92364 11.1675L15.8342 5.25362C15.966 5.12213 16.0706 4.96594 16.1419 4.79398C16.2133 4.62203 16.25 4.43768 16.25 4.25151C16.25 4.06534 16.2133 3.881 16.1419 3.70904C16.0706 3.53708 15.966 3.38089 15.8342 3.24941L15.2502 2.66533C15.1187 2.53341 14.9624 2.42875 14.7904 2.35733C14.6184 2.28591 14.4339 2.24915 14.2477 2.24915C14.0614 2.24915 13.877 2.28591 13.705 2.35733C13.533 2.42875 13.3767 2.53341 13.2452 2.66533L7.33076 8.58852Z" stroke="black" stroke-linecap="round" stroke-linejoin="round"/>
<path d="M16.2487 9.24959C16.2487 12.5495 16.2487 14.1991 15.2237 15.2241C14.1987 16.2491 12.5484 16.2491 9.24937 16.2491C5.95033 16.2491 4.30004 16.2491 3.27502 15.2241C2.25 14.1991 2.25 12.5487 2.25 9.24959C2.25 5.95046 2.25 4.30012 3.27502 3.27508C4.30004 2.25003 5.95033 2.25003 9.24937 2.25003" stroke="black" stroke-linecap="round" stroke-linejoin="round"/>
</svg>
