<svg width="18" height="18" viewBox="0 0 18 18" fill="none" xmlns="http://www.w3.org/2000/svg">
<path d="M2 6.97778C2 5.23556 2 4.36444 2.33911 3.69867C2.63738 3.1133 3.1133 2.63738 3.69867 2.33911C4.36444 2 5.23556 2 6.97778 2H11.0222C12.7644 2 13.6356 2 14.3013 2.33911C14.8867 2.63738 15.3626 3.1133 15.6609 3.69867C16 4.36444 16 5.23556 16 6.97778V11.0222C16 12.7644 16 13.6356 15.6609 14.3013C15.3626 14.8867 14.8867 15.3626 14.3013 15.6609C13.6356 16 12.7644 16 11.0222 16H6.97778C5.23556 16 4.36444 16 3.69867 15.6609C3.1133 15.3626 2.63738 14.8867 2.33911 14.3013C2 13.6356 2 12.7644 2 11.0222V6.97778Z" stroke="black" stroke-linecap="round" stroke-linejoin="round"/>
<circle cx="4.76108" cy="5.76108" r="0.65" fill="black"/>
<circle cx="4.76108" cy="8.87217" r="0.65" fill="black"/>
<circle cx="4.76108" cy="11.9834" r="0.65" fill="black"/>
<path d="M6.83331 5.69446H12.6728" stroke="black" stroke-linecap="round" stroke-linejoin="round"/>
<path d="M6.83331 8.80554H12.6728" stroke="black" stroke-linecap="round" stroke-linejoin="round"/>
<path d="M7 12H12.8395" stroke="black" stroke-linecap="round" stroke-linejoin="round"/>
</svg>
