<svg width="18" height="18" viewBox="0 0 18 18" fill="none" xmlns="http://www.w3.org/2000/svg">
<path d="M9.00073 6.27879C10.5498 6.27899 11.8562 7.47032 11.8562 9.00047C11.856 10.5305 10.5497 11.721 9.00073 11.7212C7.45164 11.7212 6.14448 10.5306 6.14429 9.00047C6.14429 7.47019 7.45152 6.27879 9.00073 6.27879Z" stroke="black"/>
<path d="M9 1.5C9.33954 1.5 9.61793 1.50008 9.84473 1.51465C10.0753 1.52947 10.2877 1.5608 10.4922 1.64062L10.667 1.71875C10.8381 1.80492 10.9964 1.91457 11.1357 2.0459C11.3213 2.22089 11.4701 2.4305 11.5723 2.66309H11.5713C11.6526 2.84702 11.6901 3.03879 11.708 3.24219L11.7207 3.44922V3.45605C11.7231 3.55746 11.7531 3.6587 11.8096 3.75C11.8651 3.83973 11.9455 3.91798 12.0459 3.97559C12.1499 4.02951 12.2686 4.05996 12.3906 4.06055C12.5144 4.06108 12.6354 4.0311 12.7412 3.97656L12.7471 3.97363C13.0113 3.84206 13.253 3.7431 13.5166 3.70996L13.709 3.69434C13.9008 3.68842 14.0929 3.70978 14.2793 3.75684C14.528 3.81963 14.7627 3.92841 14.9697 4.07812H14.9707C15.1487 4.20759 15.2868 4.3689 15.418 4.55273C15.5461 4.73244 15.6868 4.96184 15.8564 5.23828L15.8574 5.23926C16.0262 5.5154 16.1664 5.74462 16.2676 5.93945C16.3706 6.13797 16.4518 6.33567 16.4824 6.55371V6.55469C16.5175 6.80594 16.5 7.06149 16.4307 7.30566C16.3613 7.54982 16.2418 7.77707 16.0811 7.97461C15.9136 8.18059 15.6947 8.32999 15.4473 8.47754L15.4453 8.47852C15.2274 8.60711 15.1169 8.80547 15.1143 8.99316C15.1156 9.09465 15.1446 9.19634 15.2002 9.28809C15.2558 9.37974 15.3372 9.45987 15.4395 9.51855L15.4463 9.52246C15.6957 9.67044 15.9125 9.8196 16.0801 10.0244L16.0811 10.0254C16.2418 10.2229 16.3613 10.4502 16.4307 10.6943C16.5 10.9385 16.5175 11.1941 16.4824 11.4453C16.4523 11.6644 16.3708 11.8622 16.2676 12.0605C16.1662 12.2553 16.0254 12.4849 15.8564 12.7607C15.6871 13.0372 15.5461 13.2673 15.418 13.4473C15.2869 13.6312 15.1484 13.7925 14.9697 13.9219C14.7627 14.0716 14.528 14.1804 14.2793 14.2432C14.0929 14.2902 13.9008 14.3116 13.709 14.3057L13.5166 14.29C13.2529 14.2569 13.011 14.1582 12.7471 14.0264L12.7412 14.0234C12.6353 13.9688 12.5146 13.9389 12.3906 13.9395C12.2666 13.94 12.1462 13.9708 12.041 14.0264C11.8697 14.1218 11.7592 14.2843 11.7285 14.4688L11.7207 14.5508C11.7096 14.8344 11.6788 15.0924 11.5723 15.3359V15.3369C11.4701 15.5695 11.3213 15.7791 11.1357 15.9541C10.9964 16.0854 10.8381 16.1951 10.667 16.2812L10.4922 16.3594C10.2877 16.4392 10.0753 16.4705 9.84473 16.4854C9.61793 16.4999 9.33954 16.5 9 16.5C8.66046 16.5 8.38207 16.4999 8.15527 16.4854C7.98246 16.4742 7.81977 16.4543 7.66309 16.4111L7.50781 16.3594C7.26901 16.2662 7.04989 16.1291 6.86426 15.9541C6.67866 15.7791 6.52991 15.5695 6.42773 15.3369V15.3359C6.34683 15.1524 6.30981 14.9608 6.29199 14.7578L6.2793 14.5508C6.27099 14.3323 6.15397 14.1331 5.9541 14.0234C5.85009 13.9695 5.73139 13.94 5.60938 13.9395C5.48537 13.9389 5.36473 13.9688 5.25879 14.0234L5.25293 14.0264C5.0549 14.1253 4.86937 14.2058 4.67773 14.2539L4.4834 14.29C4.22866 14.3217 3.96941 14.3059 3.7207 14.2432C3.47197 14.1804 3.23726 14.0716 3.03027 13.9219H3.0293C2.85129 13.7924 2.71317 13.6311 2.58203 13.4473C2.45386 13.2676 2.31323 13.0382 2.14355 12.7617L2.14258 12.7607C1.97381 12.4846 1.83356 12.2554 1.73242 12.0605C1.62939 11.862 1.54818 11.6643 1.51758 11.4463V11.4453C1.48248 11.1941 1.5 10.9385 1.56934 10.6943C1.63871 10.4502 1.75821 10.2229 1.91895 10.0254C2.08638 9.81941 2.30527 9.67001 2.55273 9.52246L2.55469 9.52148C2.77527 9.39133 2.88574 9.1897 2.88574 9C2.88574 8.83417 2.80101 8.65924 2.63184 8.53027L2.55371 8.47754C2.3043 8.32956 2.08747 8.1804 1.91992 7.97559L1.91895 7.97461C1.75821 7.77707 1.63871 7.54982 1.56934 7.30566C1.5 7.0615 1.48248 6.80594 1.51758 6.55469C1.54775 6.33557 1.62922 6.13784 1.73242 5.93945C1.83377 5.74467 1.9746 5.51512 2.14355 5.23926C2.31312 4.9624 2.45374 4.73262 2.58203 4.55273C2.71318 4.36888 2.85113 4.20842 3.02832 4.0791L3.03027 4.07812C3.39506 3.81432 3.84001 3.68089 4.28906 3.69434L4.48242 3.70996L4.67773 3.74609C4.80572 3.7782 4.93073 3.82503 5.05859 3.88184L5.25293 3.97363L5.25879 3.97656C5.36473 4.03122 5.48537 4.06114 5.60938 4.06055C5.73124 4.05996 5.8492 4.02938 5.95312 3.97559C6.05386 3.91794 6.13473 3.83995 6.19043 3.75C6.24694 3.6587 6.27685 3.55746 6.2793 3.45605V3.44922C6.29037 3.16652 6.32115 2.90764 6.42773 2.66406V2.66309C6.52991 2.4305 6.67866 2.22089 6.86426 2.0459C7.04989 1.87088 7.26901 1.73382 7.50781 1.64062L7.66309 1.58887C7.81977 1.54567 7.98246 1.52576 8.15527 1.51465C8.38207 1.50008 8.66046 1.5 9 1.5Z" stroke="black"/>
</svg>
