<svg width="18" height="18" viewBox="0 0 18 18" fill="none" xmlns="http://www.w3.org/2000/svg">
<path d="M6.2 16H11.8M4.1 13.9H13.9M2 11.8H16" stroke="black" stroke-linecap="round" stroke-linejoin="round"/>
<path d="M8.99993 4.8C8.1916 4.79995 7.40043 5.03317 6.72137 5.47166C6.04231 5.91014 5.5042 6.53527 5.17164 7.27201C4.83907 8.00876 4.72617 8.82582 4.84649 9.62515C4.9668 10.4245 5.31522 11.1721 5.84993 11.7783H12.1499C12.6846 11.1721 13.0331 10.4245 13.1534 9.62515C13.2737 8.82582 13.1608 8.00876 12.8282 7.27201C12.4957 6.53527 11.9576 5.91014 11.2785 5.47166C10.5994 5.03317 9.80826 4.79995 8.99993 4.8Z" stroke="black"/>
<path d="M9 2V2.7M16 9H15.3M2.7 9H2M13.949 4.051L13.6746 4.3261M4.3254 4.3254L4.0503 4.0503" stroke="black" stroke-linecap="round"/>
</svg>
